<svg width="23" height="22" viewBox="0 0 23 22" fill="none" xmlns="http://www.w3.org/2000/svg">
<path fill-rule="evenodd" clip-rule="evenodd" d="M11.5833 0C5.42022 0 0.461914 4.9583 0.461914 11.1214C0.461914 16.0334 3.65932 20.2039 8.06156 21.6868C8.61763 21.7795 8.80298 21.4551 8.80298 21.1307C8.80298 20.8527 8.80298 20.1576 8.80298 19.2308C5.69825 19.9259 5.0495 17.7479 5.0495 17.7479C4.53977 16.4504 3.79834 16.1261 3.79834 16.1261C2.77888 15.431 3.89102 15.431 3.89102 15.431C5.00316 15.5237 5.60557 16.5895 5.60557 16.5895C6.5787 18.304 8.20057 17.7943 8.84932 17.5163C8.942 16.7748 9.22004 16.3114 9.54441 16.0334C7.08843 15.7554 4.49343 14.7822 4.49343 10.519C4.49343 9.3142 4.91048 8.29473 5.65191 7.5533C5.55923 7.27527 5.14218 6.16312 5.74459 4.58759C5.74459 4.58759 6.67138 4.30955 8.80298 5.74607C9.68343 5.51437 10.6566 5.37536 11.5833 5.37536C12.5101 5.37536 13.4833 5.51437 14.3637 5.74607C16.4953 4.30955 17.4221 4.58759 17.4221 4.58759C18.0245 6.11679 17.6538 7.22893 17.5148 7.5533C18.2099 8.34107 18.6733 9.3142 18.6733 10.519C18.6733 14.7822 16.0782 15.709 13.5759 15.9871C13.993 16.3114 14.3174 17.0065 14.3174 18.026C14.3174 19.5088 14.3174 20.7137 14.3174 21.0844C14.3174 21.3624 14.5027 21.7331 15.1051 21.6404C19.5074 20.2039 22.7048 16.0334 22.7048 11.1214C22.7048 4.9583 17.7465 0 11.5833 0Z" fill="white"/>
</svg>
