<svg width="49" height="48" viewBox="0 0 49 48" fill="none" xmlns="http://www.w3.org/2000/svg">
<path d="M20.2988 21.1992H23.0997" stroke="white" stroke-width="3" stroke-miterlimit="10"/>
<path d="M25.8994 26.8008H28.7002" stroke="white" stroke-width="3" stroke-miterlimit="10"/>
<path d="M36.3572 24C36.3572 22.6787 35.4419 21.5717 34.211 21.2769C33.9923 20.4954 33.6816 19.7526 33.2917 19.0602C33.9544 17.9811 33.8191 16.5506 32.8845 15.6159C31.9499 14.6813 30.5193 14.546 29.4402 15.2087C28.7479 14.8188 28.005 14.5081 27.2236 14.2895C26.9287 13.0585 25.8217 12.1432 24.5004 12.1432C23.1791 12.1432 22.0721 13.0585 21.7772 14.2895C20.9958 14.5081 20.2529 14.8188 19.5606 15.2087C18.4815 14.546 17.0509 14.6813 16.1163 15.6159C15.1817 16.5506 15.0464 17.9811 15.7091 19.0602C15.3192 19.7526 15.0085 20.4954 14.7898 21.2769C13.5589 21.5717 12.6436 22.6787 12.6436 24C12.6436 25.3214 13.5589 26.4284 14.7898 26.7232C15.0085 27.5046 15.3192 28.2475 15.7091 28.9399C15.0464 30.0189 15.1817 31.4495 16.1163 32.3841C17.0509 33.3188 18.4815 33.454 19.5606 32.7914C20.2529 33.1812 20.9958 33.4919 21.7772 33.7106C22.0721 34.9416 23.1791 35.8569 24.5004 35.8569C25.8217 35.8569 26.9287 34.9416 27.2236 33.7106C28.005 33.4919 28.7479 33.1812 29.4402 32.7914C30.5193 33.454 31.9499 33.3188 32.8845 32.3841C33.8191 31.4495 33.9544 30.0189 33.2917 28.9399C33.6816 28.2475 33.9923 27.5046 34.211 26.7232C35.4419 26.4284 36.3572 25.3214 36.3572 24Z" stroke="white" stroke-width="3" stroke-miterlimit="10"/>
<path d="M36.3564 24H46.7195" stroke="white" stroke-width="3" stroke-miterlimit="10"/>
<path d="M47 20.5457V27.4544" stroke="white" stroke-width="3" stroke-miterlimit="10"/>
<path d="M12.6433 24H2.28027" stroke="white" stroke-width="3" stroke-miterlimit="10"/>
<path d="M2 27.4544V20.5457" stroke="white" stroke-width="3" stroke-miterlimit="10"/>
<path d="M24.5 35.8568V46.2199" stroke="white" stroke-width="3" stroke-miterlimit="10"/>
<path d="M27.9546 46.5H21.0459" stroke="white" stroke-width="3" stroke-miterlimit="10"/>
<path d="M24.5 12.1432V1.78009" stroke="white" stroke-width="3" stroke-miterlimit="10"/>
<path d="M21.0459 1.5H27.9546" stroke="white" stroke-width="3" stroke-miterlimit="10"/>
<path d="M8.16217 11.3962C10.2246 11.3962 11.8966 9.72428 11.8966 7.66181C11.8966 5.59933 10.2246 3.92737 8.16217 3.92737C6.0997 3.92737 4.42773 5.59933 4.42773 7.66181C4.42773 9.72428 6.0997 11.3962 8.16217 11.3962Z" stroke="white" stroke-width="3" stroke-miterlimit="10"/>
<path d="M10.916 10.416L17.0312 16.5311" stroke="white" stroke-width="3" stroke-miterlimit="10"/>
<path d="M40.837 11.3962C42.8995 11.3962 44.5714 9.72428 44.5714 7.66181C44.5714 5.59933 42.8995 3.92737 40.837 3.92737C38.7745 3.92737 37.1025 5.59933 37.1025 7.66181C37.1025 9.72428 38.7745 11.3962 40.837 11.3962Z" stroke="white" stroke-width="3" stroke-miterlimit="10"/>
<path d="M38.0839 10.416L31.9688 16.5311" stroke="white" stroke-width="3" stroke-miterlimit="10"/>
<path d="M40.837 44.0726C42.8995 44.0726 44.5714 42.4006 44.5714 40.3381C44.5714 38.2757 42.8995 36.6037 40.837 36.6037C38.7745 36.6037 37.1025 38.2757 37.1025 40.3381C37.1025 42.4006 38.7745 44.0726 40.837 44.0726Z" stroke="white" stroke-width="3" stroke-miterlimit="10"/>
<path d="M38.0839 37.584L31.9688 31.4689" stroke="white" stroke-width="3" stroke-miterlimit="10"/>
<path d="M8.16217 44.0726C10.2246 44.0726 11.8966 42.4006 11.8966 40.3381C11.8966 38.2757 10.2246 36.6037 8.16217 36.6037C6.0997 36.6037 4.42773 38.2757 4.42773 40.3381C4.42773 42.4006 6.0997 44.0726 8.16217 44.0726Z" stroke="white" stroke-width="3" stroke-miterlimit="10"/>
<path d="M10.916 37.584L17.0312 31.4689" stroke="white" stroke-width="3" stroke-miterlimit="10"/>
</svg>
