<svg width="48" height="51" viewBox="0 0 48 51" fill="none" xmlns="http://www.w3.org/2000/svg">
<path d="M26.047 21.3281C28.1026 19.4336 29.3946 16.708 29.3946 13.6836C29.3946 12.9531 29.3175 12.2412 29.171 11.5537C31.0616 10.5615 32.3243 8.56836 32.3243 6.35938C32.3243 3.12891 29.6954 0.5 26.4649 0.5C24.255 0.5 22.2628 1.76172 21.2696 3.65234C20.5831 3.50684 19.8702 3.42969 19.1407 3.42969C13.4864 3.42969 8.8868 8.0293 8.8868 13.6836C8.8868 16.7461 10.211 19.502 12.3126 21.3994C5.89363 22.6631 0.691485 27.8799 0.0684383 34.418C-0.774335 43.25 6.28426 50.5 14.7462 50.5H16.211C17.3341 50.5 18.3604 50.0762 19.1387 49.3799C19.9454 50.1035 20.9776 50.5 22.0704 50.5H22.9679C30.6593 50.5 37.3936 44.8496 38.1143 37.2852C38.8448 29.6338 33.6046 22.667 26.047 21.3281ZM26.4649 3.42969C28.0802 3.42969 29.3946 4.74414 29.3946 6.35938C29.3946 7.33594 28.9014 8.22754 28.1348 8.76465C27.1934 7.04883 25.7745 5.63086 24.0596 4.68945C24.5958 3.92188 25.4874 3.42969 26.4649 3.42969ZM19.1407 6.35938C22.6768 6.35938 25.6368 8.87988 26.3175 12.2188H25.0001C21.1466 12.2188 17.504 10.5273 15.0118 7.63769C16.1876 6.83203 17.6095 6.35938 19.1407 6.35938ZM11.8165 13.6836C11.8165 12.2363 12.2393 10.8877 12.9669 9.75C16.0059 13.1592 20.38 15.1484 25.0001 15.1484H26.3204C25.6475 18.542 22.6837 21.1055 19.1407 21.1055C15.1016 21.1055 11.8165 17.7764 11.8165 13.6836ZM16.211 41.7109H14.7462C14.2403 41.7109 13.7491 41.6465 13.2813 41.5254C15.8057 40.873 17.6759 38.5771 17.6759 35.8516C17.6759 35.5859 17.6563 35.3242 17.6212 35.0674C19.1339 34.125 20.0782 32.3477 20.4337 29.7627C20.5401 28.9902 21.1339 28.4297 21.8458 28.4297H22.0245C22.8468 28.4297 23.5001 29.252 23.4327 30.1025C23.2384 32.5859 22.7755 33.75 22.1417 34.7354L21.1388 36.293L22.8858 36.9092C24.7286 37.5605 26.4366 38.4854 27.9776 39.666C26.9024 40.916 25.3096 41.7109 23.5352 41.7109H22.0704C20.9454 41.7109 19.918 42.1357 19.1407 42.833C18.3624 42.1357 17.335 41.7109 16.211 41.7109ZM11.8165 38.7812C10.2003 38.7812 8.8868 37.4668 8.8868 35.8516C8.8868 34.2363 10.2003 32.9219 11.8165 32.9219C13.4317 32.9219 14.7462 34.2363 14.7462 35.8516C14.7462 37.4668 13.4317 38.7812 11.8165 38.7812ZM35.1983 37.0078C34.6339 42.9307 29.2618 47.5703 22.9679 47.5703H22.0704C21.2608 47.5703 20.6055 46.915 20.6055 46.1055C20.6055 45.2979 21.2628 44.6406 22.0704 44.6406H23.5352C28.3809 44.6406 32.3243 40.6982 32.3243 35.8516H29.3946C29.3946 36.2393 29.3555 36.6182 29.2833 36.9854C28.0762 36.1123 26.7852 35.3701 25.422 34.7666C25.9249 33.5508 26.21 32.1582 26.3536 30.3311C26.5509 27.8145 24.5958 25.5 22.0245 25.5H21.8458C19.6544 25.5 17.8399 27.125 17.5313 29.3643C17.3096 30.9775 16.8741 31.8193 16.4493 32.2715C15.377 30.8867 13.6993 29.9922 11.8165 29.9922C8.58504 29.9922 5.95711 32.6211 5.95711 35.8516C5.95711 40.6982 9.89949 44.6406 14.7462 44.6406H16.211C17.0186 44.6406 17.6759 45.2979 17.6759 46.1055C17.6759 46.9131 17.0186 47.5703 16.211 47.5703H14.7462C8.00496 47.5703 2.30672 41.8037 2.98445 34.6953C3.55477 28.7178 8.96981 24.0352 15.3126 24.0352H23.5352C30.2393 24.0352 35.88 29.8643 35.1983 37.0078Z" fill="white"/>
<path d="M45.8202 14.7148C44.9423 13.8369 43.912 13.5254 42.9443 13.5127C42.9316 12.5439 42.6191 11.5137 41.7421 10.6367C40.0175 8.91211 37.2392 8.98828 35.4169 10.8106C33.5312 12.6973 33.7529 15.3174 34.0595 18.9443C34.1122 19.5625 34.3056 22.1514 34.3056 22.1514C34.3056 22.1514 36.8945 22.3447 37.5126 22.3975C40.9443 22.6875 43.7167 22.9688 45.6454 21.0391C47.4677 19.2168 47.5449 16.4395 45.8202 14.7148ZM43.5742 18.9678C42.6513 19.8906 40.7753 19.7324 37.7597 19.4775C37.5234 19.458 37.2831 19.4375 37.039 19.417C37.039 19.4092 37.0283 19.2891 37.0283 19.2891C37.0117 19.0898 36.9951 18.8926 36.9785 18.6973C36.707 15.4834 36.6064 13.7647 37.4892 12.8818C38.1122 12.2588 39.04 12.0781 39.6699 12.708C40.3847 13.4229 39.7597 14.6504 39.7001 14.7617L41.7001 16.7529C41.7128 16.7461 43.0077 16.0449 43.749 16.7861C44.4072 17.4453 44.1601 18.3818 43.5742 18.9678Z" fill="white"/>
</svg>
