<svg width="52" height="46" viewBox="0 0 52 46" fill="none" xmlns="http://www.w3.org/2000/svg">
<path fill-rule="evenodd" clip-rule="evenodd" d="M22.5669 0.500341C21.6797 0.516281 20.9739 1.24296 20.9842 2.13025V5.36172V8.59006V11.8184V14.4635C20.792 14.6793 20.5311 14.9689 20.1866 15.2643C19.9537 15.464 19.6807 15.6564 19.3953 15.8412C19.2553 13.4528 18.2768 11.3968 16.8132 9.92367C14.8112 7.90848 12.0267 6.89024 9.3067 6.99486C6.63011 7.09806 4.17788 8.29487 2.52527 10.4124C0.872661 12.5298 0 15.4691 0 19.0633C0 22.585 0.587054 26.3412 2.04919 29.5019C3.51133 32.6625 6.01087 35.3244 9.60301 35.9364C12.9933 36.5141 16.1907 35.6332 18.0774 33.3733C19.6179 31.528 20.0475 28.8796 19.2155 25.9992C19.3538 25.9612 19.5043 25.9348 19.638 25.8921C20.0266 25.7676 20.3901 25.6249 20.732 25.4759C20.8218 25.4368 20.8979 25.3961 20.9842 25.3561V27.8561V30.5264V33.1968V35.8765V38.5469V41.2141V43.8844C20.9842 46.0372 24.2126 46.0372 24.2126 43.8844V41.2141V38.5469V35.8765V33.1968V30.5264V27.8561V25.1764V22.506C24.2099 21.6 23.4632 20.8743 22.5574 20.8981C22.1957 20.9069 21.8464 21.0364 21.5675 21.267C21.5675 21.267 21.5552 21.2713 21.495 21.3174C21.435 21.3633 21.345 21.4324 21.2207 21.5192C21.0964 21.6059 20.9481 21.7173 20.7698 21.8282C20.5915 21.9391 20.3829 22.0564 20.1614 22.1749C19.9399 22.2936 19.6991 22.4082 19.4457 22.5185C19.1923 22.6289 18.921 22.7306 18.6481 22.8181C18.5833 22.8389 18.5173 22.8492 18.4526 22.8685C18.4956 22.1574 18.6645 21.0967 18.9854 19.5866C19.4999 19.4204 19.9886 19.2262 20.423 18.9939C21.1588 18.6003 21.7768 18.1386 22.2831 17.7045C22.7895 17.2703 23.176 16.862 23.4496 16.5506C23.7233 16.2392 23.9036 15.9894 23.9036 15.9894C24.103 15.7159 24.2105 15.3853 24.2125 15.0467V11.8184V8.59006V5.36172V2.13025C24.2233 1.21966 23.4774 0.483089 22.5669 0.500341ZM29.0267 0.500341C28.14 0.515675 27.4319 1.24357 27.4409 2.13025V3.7539V5.36182V6.98225V8.59016V10.2106V11.8185V13.4389V15.0468C27.4433 15.386 27.5525 15.7159 27.753 15.9895C27.753 15.9895 27.8065 16.0734 27.8823 16.1692C27.9579 16.2648 28.0669 16.3949 28.2039 16.5506C28.3407 16.7063 28.5096 16.8904 28.7052 17.0866C28.9008 17.2827 29.1205 17.4874 29.3736 17.7045C29.6267 17.9216 29.9082 18.155 30.2185 18.3728C30.5288 18.5907 30.8626 18.7972 31.2305 18.9939C31.5983 19.1906 31.9967 19.379 32.4221 19.5298C32.8477 19.6807 33.3012 19.7968 33.781 19.8734C34.6612 20.0135 35.4884 19.4136 35.6284 18.5334C35.6589 18.3419 35.6546 18.1466 35.6158 17.9566C35.4811 17.301 35.4422 16.6889 35.4613 16.1312C35.4805 15.5735 35.5573 15.0679 35.6978 14.5958C35.8383 14.1236 36.0431 13.6834 36.2841 13.2843C36.5253 12.8852 36.802 12.529 37.1291 12.1998C37.4561 11.8705 37.8302 11.5739 38.2262 11.3201C38.6222 11.0664 39.0452 10.8557 39.4873 10.6865C39.9293 10.5172 40.3849 10.3952 40.8461 10.3176C41.3072 10.2399 41.7785 10.2056 42.2301 10.223C42.6927 10.2409 43.1284 10.2986 43.5385 10.3995C43.9486 10.5005 44.3348 10.6394 44.6956 10.8188C45.0564 10.9983 45.3913 11.2238 45.7076 11.4841C46.0238 11.7444 46.3175 12.0425 46.5903 12.392C46.8631 12.7416 47.1176 13.135 47.3407 13.5837C47.5638 14.0324 47.7497 14.5427 47.9113 15.097C48.0729 15.6513 48.2057 16.2574 48.2928 16.9192C48.3798 17.581 48.4251 18.2945 48.4251 19.063C48.4251 19.8496 48.3888 20.6471 48.318 21.4464C48.2471 22.2456 48.1417 23.0509 47.9964 23.8299C47.8511 24.6088 47.6691 25.3679 47.4477 26.0935C47.2264 26.8192 46.9682 27.5029 46.6721 28.1427C46.3761 28.7826 46.038 29.371 45.6728 29.8956C45.3076 30.4202 44.9078 30.8876 44.4811 31.2765C44.0543 31.6654 43.601 31.9846 43.1097 32.2318C42.6185 32.4789 42.0996 32.6554 41.5145 32.7552C40.8788 32.8636 40.2736 32.899 39.7143 32.8751C39.155 32.8511 38.6412 32.7576 38.1789 32.6228C37.7165 32.4881 37.3027 32.3091 36.9493 32.0869C36.5959 31.8648 36.3028 31.6089 36.057 31.3146C35.8113 31.0202 35.6167 30.6873 35.4738 30.312C35.331 29.9367 35.2351 29.5199 35.2121 29.0383C35.1891 28.5567 35.2382 28.0064 35.3761 27.4051C35.514 26.804 35.7366 26.151 36.0791 25.4379C36.4644 24.6341 36.1251 23.6703 35.3215 23.2851C35.1158 23.1865 34.8916 23.1326 34.6636 23.127C34.3878 23.1203 34.108 23.0842 33.8282 23.0324C33.5483 22.9805 33.2688 22.9054 32.9959 22.818C32.723 22.7305 32.4611 22.6289 32.2078 22.5184C31.9543 22.4081 31.7137 22.2934 31.4921 22.1748C31.2705 22.0563 31.065 21.9389 30.8868 21.8281C30.7085 21.7172 30.5571 21.6058 30.4328 21.5191C30.3085 21.4323 30.2185 21.3632 30.1585 21.3173C30.0984 21.2714 30.0859 21.2669 30.0859 21.2669C29.4003 20.6973 28.3829 20.7914 27.8133 21.4769C27.5731 21.766 27.4413 22.1299 27.4408 22.5058V25.1762V27.8559V30.5262V33.1966V35.8763V38.5467V41.2139V43.8842C27.4408 44.7766 28.1642 45.5 29.0566 45.5C29.949 45.5 30.6724 44.7766 30.6724 43.8842V41.2139V38.5467V35.8763V33.1966V30.5262V27.8559V25.3559C30.7587 25.3959 30.8317 25.4366 30.9215 25.4757C31.2634 25.6247 31.63 25.7674 32.0186 25.8919C32.1624 25.938 32.3197 25.9708 32.4695 26.0117C32.4037 26.2346 32.2834 26.4697 32.233 26.6896C32.0356 27.5502 31.9551 28.3913 31.9934 29.1927C32.0316 29.9942 32.1876 30.7494 32.4568 31.4564C32.726 32.1633 33.1076 32.8083 33.5792 33.3732C34.0508 33.9382 34.6104 34.425 35.2343 34.8171C35.8582 35.2094 36.5419 35.5094 37.271 35.722C38.0001 35.9345 38.7716 36.0565 39.5724 36.0908C40.3732 36.1251 41.2028 36.0807 42.0504 35.9363C42.9484 35.7833 43.7915 35.5016 44.563 35.1135C45.3346 34.7254 46.0372 34.2302 46.6627 33.6602C47.2882 33.0902 47.8436 32.4426 48.3304 31.7433C48.8172 31.0441 49.2386 30.2919 49.6041 29.5018C49.9696 28.7116 50.2743 27.8882 50.5341 27.0363C50.794 26.1844 50.9992 25.3005 51.1647 24.4133C51.3301 23.5261 51.454 22.6302 51.5335 21.7334C51.613 20.8368 51.6534 19.9436 51.6534 19.0631C51.6534 18.1645 51.5931 17.3032 51.4863 16.4905C51.3794 15.6779 51.2216 14.9138 51.0102 14.1891C50.7989 13.4645 50.5392 12.7842 50.2252 12.1524C49.9113 11.5208 49.5412 10.9289 49.1281 10.3995C48.715 9.8702 48.2603 9.39826 47.7567 8.98402C47.253 8.56968 46.7048 8.22183 46.1267 7.9342C45.5487 7.64658 44.934 7.4216 44.3013 7.26584C43.6687 7.10997 43.0157 7.02048 42.3467 6.99465C41.6667 6.96853 40.9834 7.0106 40.31 7.12389C39.6367 7.23729 38.9759 7.42645 38.3332 7.67251C37.6906 7.91857 37.0723 8.22687 36.4858 8.60257C36.147 8.81958 35.8225 9.06372 35.5084 9.32451V2.13025C35.5189 1.2244 34.7812 0.489849 33.8753 0.500341C32.9834 0.509723 32.2697 1.23842 32.2801 2.13025V15.7215C32.2774 15.7641 32.2698 15.8047 32.2675 15.8476C32.2045 15.8063 32.1359 15.7704 32.0752 15.7277C31.8599 15.5766 31.6524 15.4208 31.4699 15.2643C31.2873 15.1077 31.1237 14.9532 30.9812 14.8103C30.8567 14.6855 30.7618 14.5638 30.6723 14.4635V13.4389V11.8185V10.2106V8.59016V6.98225V5.36182V3.7539V2.13025C30.6814 1.23903 29.9662 0.509118 29.0749 0.500038C29.0589 0.499937 29.0429 0.500038 29.0267 0.500341ZM9.42656 10.2232C11.2331 10.1537 13.2033 10.8828 14.5118 12.2C15.8178 13.5145 16.5704 15.3302 16.0377 17.9442C16.0367 17.9492 16.0387 17.9517 16.0377 17.9568C15.2135 21.5767 14.8362 23.4793 15.5143 25.2962C15.532 25.3445 15.552 25.3918 15.5742 25.4381C16.9441 28.2909 16.5794 30.1371 15.5963 31.3147C14.6133 32.4922 12.6816 33.1887 10.139 32.7554C7.79826 32.3566 6.16533 30.7026 4.98123 28.143C3.79714 25.5836 3.22834 22.2098 3.22834 19.0633C3.22834 15.9893 3.97187 13.7905 5.06325 12.3922C6.15463 10.994 7.57652 10.2945 9.42656 10.2232Z" fill="white"/>
</svg>
