<svg width="50" height="51" viewBox="0 0 50 51" fill="none" xmlns="http://www.w3.org/2000/svg">
<path d="M50 27.0625C50 24.6074 48.8609 22.4125 47.084 20.9789C47.9211 20.132 48.4375 18.9691 48.4375 17.6875C48.4375 12.1395 44.284 7.54258 38.9238 6.84219C38.234 3.23516 35.0555 0.5 31.25 0.5C28.6973 0.5 26.4266 1.73047 25 3.62969C23.5734 1.73047 21.3027 0.5 18.75 0.5C14.9445 0.5 11.766 3.23516 11.0762 6.84219C5.71602 7.54258 1.5625 12.1395 1.5625 17.6875C1.5625 18.9691 2.07891 20.132 2.91602 20.9789C1.13906 22.4125 0 24.6074 0 27.0625C0 29.9523 1.57773 32.4816 3.9168 33.8328C3.41719 34.5781 3.125 35.4746 3.125 36.4375C3.125 38.5172 4.48594 40.2844 6.36367 40.8961C6.92891 44.1691 9.53906 46.7516 12.8258 47.2773C13.6672 49.1266 16.0402 50.5 18.75 50.5C21.116 50.5 23.4984 49.7027 25 48.1516C26.5016 49.7027 28.884 50.5 31.25 50.5C33.9602 50.5 36.3328 49.1266 37.1742 47.2773C40.4609 46.7516 43.0711 44.1691 43.6363 40.8961C45.5141 40.2844 46.875 38.5172 46.875 36.4375C46.875 35.4746 46.5828 34.5781 46.0832 33.8328C48.4223 32.4816 50 29.9523 50 27.0625ZM18.75 47.375C16.8379 47.375 15.625 46.2762 15.625 45.8125C15.625 44.0891 17.0266 42.6875 18.75 42.6875C19.6129 42.6875 20.3125 41.9879 20.3125 41.125C20.3125 40.2621 19.6129 39.5625 18.75 39.5625C15.9199 39.5625 13.5504 41.4656 12.784 44.0504C10.823 43.4898 9.375 41.7012 9.375 39.5625C9.375 38.6996 8.67539 38 7.8125 38C6.95117 38 6.25 37.2988 6.25 36.4375C6.25 35.5762 6.95117 34.875 7.8125 34.875C12.1199 34.875 15.625 31.3699 15.625 27.0625C15.625 26.1996 14.9254 25.5 14.0625 25.5C13.1996 25.5 12.5 26.1996 12.5 27.0625C12.5 29.6473 10.3973 31.75 7.8125 31.75C5.22773 31.75 3.125 29.6473 3.125 27.0625C3.125 24.4777 5.22773 22.375 7.8125 22.375C8.67539 22.375 9.375 21.6754 9.375 20.8125C9.375 19.9496 8.67539 19.25 7.8125 19.25H6.25C5.38867 19.25 4.6875 18.5488 4.6875 17.6875C4.6875 13.3801 8.19258 9.875 12.5 9.875C15.0848 9.875 17.1875 11.9777 17.1875 14.5625C17.1875 15.4254 17.8871 16.125 18.75 16.125C19.6129 16.125 20.3125 15.4254 20.3125 14.5625C20.3125 10.8699 17.7297 7.78438 14.2809 6.97383C14.8609 5.04375 16.6336 3.625 18.75 3.625C21.3348 3.625 23.4375 5.72773 23.4375 8.3125V44.25C23.4375 46.7219 20.3711 47.375 18.75 47.375ZM42.1875 31.75C39.6027 31.75 37.5 29.6473 37.5 27.0625C37.5 26.1996 36.8004 25.5 35.9375 25.5C35.0746 25.5 34.375 26.1996 34.375 27.0625C34.375 31.3699 37.8801 34.875 42.1875 34.875C43.0488 34.875 43.75 35.5762 43.75 36.4375C43.75 37.2988 43.0488 38 42.1875 38C41.3246 38 40.625 38.6996 40.625 39.5625C40.625 41.7012 39.177 43.4898 37.216 44.0504C36.4496 41.4656 34.0801 39.5625 31.25 39.5625C30.3871 39.5625 29.6875 40.2621 29.6875 41.125C29.6875 41.9879 30.3871 42.6875 31.25 42.6875C32.9734 42.6875 34.375 44.0891 34.375 45.8125C34.375 46.2766 33.1621 47.375 31.25 47.375C29.6289 47.375 26.5625 46.7219 26.5625 44.25V8.3125C26.5625 5.72773 28.6652 3.625 31.25 3.625C33.3664 3.625 35.1391 5.04375 35.7191 6.97383C32.2703 7.78438 29.6875 10.8699 29.6875 14.5625C29.6875 15.4254 30.3871 16.125 31.25 16.125C32.1129 16.125 32.8125 15.4254 32.8125 14.5625C32.8125 11.9777 34.9152 9.875 37.5 9.875C41.8074 9.875 45.3125 13.3801 45.3125 17.6875C45.3125 18.5488 44.6113 19.25 43.75 19.25H42.1875C41.3246 19.25 40.625 19.9496 40.625 20.8125C40.625 21.6754 41.3246 22.375 42.1875 22.375C44.7723 22.375 46.875 24.4777 46.875 27.0625C46.875 29.6473 44.7723 31.75 42.1875 31.75Z" fill="white"/>
</svg>
