<svg width="50" height="51" viewBox="0 0 50 51" fill="none" xmlns="http://www.w3.org/2000/svg">
<mask id="mask0_3008_913" style="mask-type:luminance" maskUnits="userSpaceOnUse" x="0" y="0" width="50" height="51">
<path d="M0 0.5H50V50.5H0V0.5Z" fill="white"/>
</mask>
<g mask="url(#mask0_3008_913)">
<path d="M31.9409 1.98481L25.7835 14.6676C27.5252 15.9889 28.2525 18.3563 27.4542 20.4636C26.4298 23.1677 23.3733 24.4409 20.752 23.305C20.0308 22.9924 19.4199 22.531 18.9396 21.9721C18.1563 21.0605 17.0102 20.5639 15.8103 20.6161C15.0747 20.648 14.3205 20.5179 13.5993 20.2054C10.9781 19.0695 9.81284 15.9669 11.0807 13.3682C12.0687 11.3431 14.2902 10.2537 16.4444 10.6205L20.2964 1.96489L31.9409 1.98481Z" stroke="#0022FF" stroke-width="3" stroke-miterlimit="10" stroke-linecap="round" stroke-linejoin="round"/>
<path d="M28.0594 49.0065L25.6422 38.1004C27.677 37.3025 29.0192 35.2222 28.8228 32.9769C28.5707 30.0958 25.9745 28.039 23.1437 28.4191C22.3648 28.5237 21.6517 28.8017 21.0378 29.2088C20.0366 29.873 18.799 30.0393 17.6582 29.6626C16.9589 29.4317 16.1979 29.3517 15.419 29.4563C12.588 29.8364 10.6248 32.5054 11.1398 35.3512C11.5412 37.5688 13.3834 39.2218 15.5563 39.4546L16.8603 49.0352L28.0594 49.0065Z" stroke="#0022FF" stroke-width="3" stroke-miterlimit="10" stroke-linecap="round" stroke-linejoin="round"/>
<path d="M37.2109 25.5H39.4335" stroke="#0022FF" stroke-width="3" stroke-miterlimit="10" stroke-linecap="round" stroke-linejoin="round"/>
<path d="M34.6074 30.5735L36.179 32.1452" stroke="#0022FF" stroke-width="3" stroke-miterlimit="10" stroke-linecap="round" stroke-linejoin="round"/>
<path d="M34.6074 20.4265L36.179 18.8548" stroke="#0022FF" stroke-width="3" stroke-miterlimit="10" stroke-linecap="round" stroke-linejoin="round"/>
</g>
</svg>
