<svg width="24" height="23" viewBox="0 0 24 23" fill="none" xmlns="http://www.w3.org/2000/svg">
<path d="M12.0079 2.06385C15.0661 2.06385 15.4282 2.07531 16.6363 2.1304C17.3627 2.13928 18.0822 2.27266 18.7635 2.52473C19.2575 2.71527 19.7062 3.00715 20.0806 3.38158C20.4551 3.75601 20.747 4.2047 20.9375 4.69876C21.1896 5.38005 21.3229 6.09951 21.3318 6.82588C21.3864 8.03398 21.3984 8.39614 21.3984 11.4543C21.3984 14.5124 21.3869 14.8746 21.3318 16.0827C21.3229 16.8091 21.1896 17.5285 20.9375 18.2098C20.747 18.7039 20.4551 19.1526 20.0806 19.527C19.7062 19.9014 19.2575 20.1933 18.7635 20.3838C18.0822 20.6359 17.3627 20.7693 16.6363 20.7782C15.4288 20.8327 15.0666 20.8447 12.0079 20.8447C8.94925 20.8447 8.58709 20.8333 7.37954 20.7782C6.65317 20.7693 5.9337 20.6359 5.25241 20.3838C4.75836 20.1933 4.30967 19.9014 3.93523 19.527C3.5608 19.1526 3.26892 18.7039 3.07839 18.2098C2.82632 17.5285 2.69294 16.8091 2.68405 16.0827C2.62951 14.8746 2.61751 14.5124 2.61751 11.4543C2.61751 8.39614 2.62896 8.03398 2.68405 6.82588C2.69294 6.09951 2.82632 5.38005 3.07839 4.69876C3.26892 4.2047 3.5608 3.75601 3.93523 3.38158C4.30967 3.00715 4.75836 2.71527 5.25241 2.52473C5.9337 2.27266 6.65317 2.13928 7.37954 2.1304C8.58764 2.07585 8.94979 2.06385 12.0079 2.06385ZM12.0079 0C8.89907 0 8.50746 0.01309 7.28573 0.0687224C6.33509 0.0876309 5.39455 0.267625 4.5041 0.601049C3.74025 0.888846 3.04838 1.33985 2.47679 1.92259C1.89352 2.49439 1.44213 3.18665 1.15416 3.951C0.820733 4.84144 0.640739 5.78198 0.621831 6.73262C0.567289 7.95326 0.554199 8.34487 0.554199 11.4537C0.554199 14.5626 0.567289 14.9542 0.622922 16.176C0.64183 17.1266 0.821824 18.0671 1.15525 18.9576C1.4429 19.7218 1.89392 20.4141 2.47679 20.986C3.0487 21.5689 3.74095 22.0199 4.50519 22.3075C5.39564 22.6409 6.33618 22.8209 7.28682 22.8398C8.50855 22.8944 8.89852 22.9086 12.009 22.9086C15.1195 22.9086 15.5095 22.8955 16.7312 22.8398C17.6819 22.8209 18.6224 22.6409 19.5129 22.3075C20.2735 22.0127 20.9642 21.5624 21.5409 20.9853C22.1175 20.4083 22.5674 19.7173 22.8617 18.9565C23.1951 18.066 23.3751 17.1255 23.394 16.1749C23.4486 14.9542 23.4617 14.5626 23.4617 11.4537C23.4617 8.34487 23.4486 7.95326 23.393 6.73153C23.3741 5.78089 23.1941 4.84035 22.8606 3.9499C22.573 3.18566 22.122 2.49341 21.5391 1.9215C20.9672 1.33863 20.2749 0.887615 19.5107 0.599958C18.6202 0.266534 17.6797 0.0865401 16.7291 0.0676317C15.5084 0.01309 15.1168 0 12.0079 0Z" fill="white"/>
<path d="M12.0121 5.57178C10.8488 5.57178 9.71166 5.91674 8.74441 6.56303C7.77715 7.20933 7.02327 8.12794 6.5781 9.20269C6.13292 10.2774 6.01644 11.4601 6.24339 12.601C6.47034 13.742 7.03052 14.79 7.8531 15.6126C8.67568 16.4352 9.72372 16.9953 10.8647 17.2223C12.0056 17.4492 13.1882 17.3328 14.263 16.8876C15.3378 16.4424 16.2564 15.6885 16.9027 14.7213C17.549 13.754 17.8939 12.6168 17.8939 11.4535C17.8939 9.8936 17.2742 8.39755 16.1712 7.29451C15.0681 6.19146 13.5721 5.57178 12.0121 5.57178ZM12.0121 15.2715C11.257 15.2715 10.5189 15.0475 9.89102 14.628C9.26317 14.2085 8.77382 13.6122 8.48485 12.9146C8.19588 12.217 8.12027 11.4493 8.26759 10.7087C8.4149 9.9681 8.77853 9.28782 9.31247 8.75387C9.84642 8.21993 10.5267 7.85631 11.2673 7.70899C12.0079 7.56168 12.7756 7.63728 13.4732 7.92625C14.1708 8.21522 14.7671 8.70457 15.1866 9.33243C15.6061 9.96028 15.8301 10.6984 15.8301 11.4535C15.8301 12.4661 15.4278 13.4372 14.7118 14.1532C13.9958 14.8692 13.0247 15.2715 12.0121 15.2715Z" fill="white"/>
<path d="M18.121 6.71911C18.8801 6.71911 19.4955 6.10375 19.4955 5.34466C19.4955 4.58558 18.8801 3.97021 18.121 3.97021C17.3619 3.97021 16.7466 4.58558 16.7466 5.34466C16.7466 6.10375 17.3619 6.71911 18.121 6.71911Z" fill="white"/>
</svg>
