<svg width="210" height="40" viewBox="0 0 210 40" fill="none" xmlns="http://www.w3.org/2000/svg">
<path d="M34.0734 27.2265C32.9104 28.3872 31.0244 28.3872 29.8614 27.2265L24.7264 22.1017C23.5632 20.941 23.5632 19.059 24.7264 17.8982L29.8614 12.7736C31.0244 11.6128 32.9104 11.6128 34.0734 12.7736L39.2086 17.8982C40.3716 19.059 40.3716 20.941 39.2086 22.1017L34.0734 27.2265ZM10.2194 27.2265C9.05629 28.3872 7.17047 28.3872 6.00735 27.2265L0.872346 22.1017C-0.290781 20.941 -0.290783 19.059 0.872344 17.8982L6.00735 12.7736C7.17047 11.6128 9.05629 11.6128 10.2194 12.7736L15.3544 17.8982C16.5175 19.059 16.5175 20.941 15.3544 22.1017L10.2194 27.2265ZM22.1465 39.1293C20.9833 40.2902 19.0975 40.2902 17.9344 39.1293L12.7994 34.0047C11.6362 32.844 11.6362 30.9619 12.7994 29.8012L17.9344 24.6766C19.0975 23.5157 20.9833 23.5157 22.1465 24.6766L27.2815 29.8012C28.4445 30.9619 28.4445 32.844 27.2815 34.0047L22.1465 39.1293ZM22.1465 15.3235C20.9833 16.4842 19.0975 16.4842 17.9344 15.3235L12.7994 10.1988C11.6362 9.03802 11.6362 7.15603 12.7994 5.99523L17.9344 0.870587C19.0975 -0.290194 20.9833 -0.290196 22.1465 0.870585L27.2815 5.99523C28.4445 7.15603 28.4445 9.03802 27.2815 10.1988L22.1465 15.3235Z" fill="#0022FF"/>
<path d="M47.7891 37.9106V2.54056H53.4115L67.3672 24.2335H64.5058L78.4113 2.54056H84.084V37.9106H76.2025V15.8168L77.6081 16.1675L68.5218 30.2955H63.301L54.2649 16.1675L55.6203 15.8168V37.9106H47.7891Z" fill="white"/>
<path d="M102.226 38.4617C99.5825 38.4617 97.223 37.9273 95.1481 36.8585C93.1066 35.7563 91.5002 34.2367 90.3288 32.2995C89.1575 30.3623 88.5718 28.1747 88.5718 25.7365C88.5718 23.2983 89.1408 21.1274 90.2786 19.2236C91.45 17.2864 93.0229 15.7667 94.9975 14.6646C96.972 13.5624 99.1976 13.0113 101.674 13.0113C104.084 13.0113 106.209 13.529 108.05 14.5644C109.89 15.5997 111.329 17.0359 112.367 18.8729C113.438 20.7099 113.973 22.814 113.973 25.1854C113.973 25.6196 113.94 26.0872 113.873 26.5882C113.839 27.0558 113.756 27.6069 113.622 28.2414L92.5879 28.2915V23.0311L110.359 22.981L107.046 25.1854C107.012 23.7826 106.795 22.6303 106.393 21.7286C105.991 20.7934 105.389 20.092 104.586 19.6244C103.816 19.1234 102.862 18.8729 101.724 18.8729C100.52 18.8729 99.4653 19.1568 98.5617 19.7246C97.6916 20.259 97.0055 21.0272 96.5035 22.0291C96.035 23.0311 95.8007 24.2502 95.8007 25.6864C95.8007 27.1226 96.0517 28.3583 96.5537 29.3937C97.0892 30.3957 97.8254 31.1806 98.7625 31.7484C99.7331 32.2828 100.871 32.55 102.176 32.55C103.381 32.55 104.469 32.3496 105.439 31.9488C106.41 31.5146 107.263 30.88 107.999 30.045L112.216 34.2534C111.011 35.6561 109.556 36.7082 107.849 37.4096C106.142 38.111 104.268 38.4617 102.226 38.4617Z" fill="white"/>
<path d="M128.072 38.4116C125.763 38.4116 123.705 37.8605 121.897 36.7583C120.124 35.6561 118.718 34.1532 117.681 32.2494C116.677 30.3456 116.175 28.1747 116.175 25.7365C116.175 23.2983 116.677 21.1274 117.681 19.2236C118.718 17.3198 120.124 15.8168 121.897 14.7147C123.705 13.6125 125.763 13.0614 128.072 13.0614C129.745 13.0614 131.251 13.3787 132.59 14.0133C133.962 14.6479 135.083 15.533 135.954 16.6685C136.857 17.7707 137.359 19.0399 137.46 20.4761V30.7464C137.359 32.1826 136.874 33.4852 136.004 34.6541C135.134 35.7897 134.013 36.7082 132.64 37.4096C131.268 38.0776 129.745 38.4116 128.072 38.4116ZM129.428 31.4979C130.532 31.4979 131.486 31.2641 132.289 30.7965C133.092 30.2955 133.728 29.6108 134.197 28.7424C134.665 27.8741 134.899 26.8721 134.899 25.7365C134.899 24.6009 134.665 23.6156 134.197 22.7806C133.762 21.9122 133.126 21.2276 132.289 20.7266C131.486 20.2256 130.549 19.9751 129.478 19.9751C128.407 19.9751 127.453 20.2256 126.616 20.7266C125.813 21.2276 125.16 21.9122 124.658 22.7806C124.19 23.649 123.956 24.6343 123.956 25.7365C123.956 26.8387 124.19 27.824 124.658 28.6923C125.127 29.5607 125.78 30.2454 126.616 30.7464C127.453 31.2474 128.39 31.4979 129.428 31.4979ZM142.128 37.9106H134.598V31.3476L135.753 25.4359L134.448 19.5242V1.53857H142.128V37.9106Z" fill="white"/>
<path d="M147.536 37.9106V13.5624H155.217V37.9106H147.536ZM151.402 10.2057C150.197 10.2057 149.193 9.80494 148.39 9.00335C147.62 8.16837 147.235 7.16638 147.235 5.9974C147.235 4.79502 147.62 3.79304 148.39 2.99145C149.193 2.18986 150.197 1.78907 151.402 1.78907C152.606 1.78907 153.594 2.18986 154.363 2.99145C155.133 3.79304 155.518 4.79502 155.518 5.9974C155.518 7.16638 155.133 8.16837 154.363 9.00335C153.594 9.80494 152.606 10.2057 151.402 10.2057Z" fill="white"/>
<path d="M172.423 38.4617C169.913 38.4617 167.637 37.9106 165.595 36.8084C163.554 35.7062 161.947 34.1866 160.776 32.2494C159.605 30.3122 159.019 28.1413 159.019 25.7365C159.019 23.2983 159.605 21.1274 160.776 19.2236C161.981 17.2864 163.604 15.7667 165.646 14.6646C167.687 13.5624 169.98 13.0113 172.523 13.0113C174.431 13.0113 176.171 13.3453 177.744 14.0133C179.35 14.6479 180.773 15.6164 182.011 16.919L177.091 21.8288C176.522 21.1942 175.853 20.7266 175.083 20.426C174.347 20.1254 173.494 19.9751 172.523 19.9751C171.419 19.9751 170.431 20.2256 169.561 20.7266C168.725 21.1942 168.055 21.8622 167.553 22.7305C167.085 23.5655 166.85 24.5508 166.85 25.6864C166.85 26.822 167.085 27.824 167.553 28.6923C168.055 29.5607 168.741 30.2454 169.611 30.7464C170.482 31.2474 171.452 31.4979 172.523 31.4979C173.527 31.4979 174.414 31.3309 175.184 30.9969C175.987 30.6295 176.673 30.1285 177.242 29.4939L182.111 34.4037C180.84 35.7396 179.4 36.7583 177.794 37.4597C176.188 38.1277 174.397 38.4617 172.423 38.4617Z" fill="white"/>
<path d="M200.346 37.9106L194.472 28.4418L192.816 27.3898L183.228 13.5624H192.213L197.685 22.4299L199.292 23.4319L209.231 37.9106H200.346ZM182.776 37.9106L192.766 23.7325L197.133 28.6422L191.159 37.9106H182.776ZM199.241 27.3397L194.874 22.4299L200.396 13.5624H208.729L199.241 27.3397Z" fill="white"/>
</svg>
