<svg width="136" height="26" viewBox="0 0 136 26" fill="none" xmlns="http://www.w3.org/2000/svg">
<path d="M22.1477 17.6972C21.3917 18.4516 20.1659 18.4516 19.4099 17.6972L16.0722 14.3661C15.3161 13.6116 15.3161 12.3883 16.0722 11.6338L19.4099 8.30281C20.1659 7.54829 21.3917 7.54829 22.1477 8.30281L25.4855 11.6338C26.2415 12.3883 26.2415 13.6116 25.4855 14.3661L22.1477 17.6972ZM6.64261 17.6972C5.88659 18.4516 4.6608 18.4516 3.90478 17.6972L0.567024 14.3661C-0.189007 13.6116 -0.189009 12.3883 0.567023 11.6338L3.90478 8.30281C4.6608 7.54829 5.88659 7.54829 6.64261 8.30281L9.98037 11.6338C10.7364 12.3883 10.7364 13.6116 9.98037 14.3661L6.64261 17.6972ZM14.3952 25.434C13.6391 26.1886 12.4134 26.1886 11.6573 25.434L8.31958 22.1031C7.56355 21.3486 7.56355 20.1252 8.31958 19.3707L11.6573 16.0398C12.4134 15.2852 13.6391 15.2852 14.3952 16.0398L17.7329 19.3707C18.4889 20.1252 18.4889 21.3486 17.7329 22.1031L14.3952 25.434ZM14.3952 9.96023C13.6391 10.7147 12.4134 10.7147 11.6573 9.96023L8.31958 6.62921C7.56355 5.87471 7.56355 4.65141 8.31958 3.8969L11.6573 0.565881C12.4134 -0.188626 13.6391 -0.188627 14.3952 0.56588L17.7329 3.8969C18.4889 4.65141 18.4889 5.87471 17.7329 6.62921L14.3952 9.96023Z" fill="#0022FF"/>
<path d="M31.0625 24.6418V1.65129H34.7171L43.7883 15.7517H41.9284L50.967 1.65129H54.6542V24.6418H49.5312V10.2809L50.4449 10.5088L44.5388 19.692H41.1452L35.2718 10.5088L36.1528 10.2809V24.6418H31.0625Z" fill="#030303"/>
<path d="M66.4467 25C64.7282 25 63.1945 24.6526 61.8458 23.9579C60.5189 23.2415 59.4747 22.2537 58.7133 20.9946C57.952 19.7354 57.5713 18.3134 57.5713 16.7286C57.5713 15.1438 57.9411 13.7327 58.6807 12.4953C59.4421 11.2361 60.4645 10.2483 61.7479 9.53189C63.0314 8.81547 64.478 8.45726 66.0878 8.45726C67.654 8.45726 69.0354 8.79376 70.2318 9.46676C71.4282 10.1398 72.3637 11.0733 73.038 12.2673C73.7341 13.4613 74.0822 14.829 74.0822 16.3704C74.0822 16.6526 74.0604 16.9566 74.0169 17.2822C73.9952 17.5862 73.9408 17.9444 73.8538 18.3569L60.1817 18.3894V14.9701L71.7328 14.9376L69.5792 16.3704C69.5574 15.4586 69.416 14.7096 69.155 14.1235C68.894 13.5156 68.5024 13.0597 67.9803 12.7558C67.48 12.4301 66.86 12.2673 66.1204 12.2673C65.3373 12.2673 64.652 12.4518 64.0647 12.8209C63.4991 13.1683 63.0531 13.6676 62.7268 14.3189C62.4223 14.9701 62.27 15.7626 62.27 16.6961C62.27 17.6296 62.4332 18.4328 62.7595 19.1058C63.1075 19.7571 63.5861 20.2673 64.1952 20.6364C64.8261 20.9837 65.5657 21.1574 66.4141 21.1574C67.1972 21.1574 67.9042 21.0271 68.535 20.7666C69.1659 20.4844 69.7206 20.0719 70.1992 19.5292L72.9401 22.2646C72.157 23.1764 71.2107 23.8602 70.1013 24.3161C68.9919 24.7721 67.7737 25 66.4467 25Z" fill="#030303"/>
<path d="M83.2464 24.9674C81.7454 24.9674 80.4076 24.6092 79.2329 23.8928C78.08 23.1764 77.1663 22.1995 76.492 20.962C75.8394 19.7246 75.5131 18.3134 75.5131 16.7286C75.5131 15.1438 75.8394 13.7327 76.492 12.4953C77.1663 11.2578 78.08 10.2809 79.2329 9.56445C80.4076 8.84803 81.7454 8.48982 83.2464 8.48982C84.3341 8.48982 85.313 8.69607 86.1832 9.10855C87.075 9.52103 87.8038 10.0963 88.3694 10.8345C88.9567 11.5509 89.283 12.3758 89.3483 13.3094V19.9851C89.283 20.9186 88.9676 21.7653 88.402 22.5251C87.8364 23.2632 87.1077 23.8602 86.2158 24.3161C85.3239 24.7503 84.3341 24.9674 83.2464 24.9674ZM84.1274 20.4735C84.8453 20.4735 85.4653 20.3216 85.9874 20.0176C86.5095 19.692 86.9228 19.2469 87.2273 18.6825C87.5319 18.118 87.6841 17.4668 87.6841 16.7286C87.6841 15.9905 87.5319 15.3501 87.2273 14.8073C86.9445 14.2429 86.5312 13.7978 85.9874 13.4722C85.4653 13.1465 84.8562 12.9837 84.1601 12.9837C83.464 12.9837 82.844 13.1465 82.3002 13.4722C81.7781 13.7978 81.3539 14.2429 81.0276 14.8073C80.723 15.3718 80.5708 16.0122 80.5708 16.7286C80.5708 17.445 80.723 18.0855 81.0276 18.6499C81.3321 19.2144 81.7563 19.6594 82.3002 19.9851C82.844 20.3107 83.4531 20.4735 84.1274 20.4735ZM92.3829 24.6418H87.4884V20.3758L88.2389 16.5332L87.3905 12.6906V1H92.3829V24.6418Z" fill="#030303"/>
<path d="M95.898 24.6418V8.81547H100.89V24.6418H95.898ZM98.4106 6.63365C97.6274 6.63365 96.9748 6.37313 96.4528 5.8521C95.9524 5.30936 95.7023 4.65807 95.7023 3.89824C95.7023 3.11669 95.9524 2.4654 96.4528 1.94437C96.9748 1.42334 97.6274 1.16282 98.4106 1.16282C99.1937 1.16282 99.8354 1.42334 100.336 1.94437C100.836 2.4654 101.086 3.11669 101.086 3.89824C101.086 4.65807 100.836 5.30936 100.336 5.8521C99.8354 6.37313 99.1937 6.63365 98.4106 6.63365Z" fill="#030303"/>
<path d="M112.074 25C110.443 25 108.963 24.6418 107.637 23.9254C106.31 23.209 105.265 22.2212 104.504 20.962C103.743 19.7029 103.362 18.2917 103.362 16.7286C103.362 15.1438 103.743 13.7327 104.504 12.4953C105.287 11.2361 106.342 10.2483 107.669 9.53189C108.996 8.81547 110.486 8.45726 112.14 8.45726C113.379 8.45726 114.511 8.67436 115.533 9.10855C116.577 9.52103 117.502 10.1506 118.307 10.9973L115.109 14.1886C114.739 13.7761 114.304 13.4722 113.804 13.2768C113.325 13.0814 112.77 12.9837 112.14 12.9837C111.422 12.9837 110.78 13.1465 110.214 13.4722C109.67 13.7761 109.235 14.2103 108.909 14.7748C108.605 15.3175 108.452 15.9579 108.452 16.6961C108.452 17.4342 108.605 18.0855 108.909 18.6499C109.235 19.2144 109.681 19.6594 110.247 19.9851C110.813 20.3107 111.443 20.4735 112.14 20.4735C112.792 20.4735 113.369 20.365 113.869 20.1479C114.391 19.9091 114.837 19.5834 115.207 19.171L118.372 22.3623C117.545 23.2307 116.61 23.8928 115.566 24.3487C114.522 24.7829 113.358 25 112.074 25Z" fill="#030303"/>
<path d="M130.224 24.6418L126.407 18.4871L125.33 17.8033L119.097 8.81547H124.938L128.495 14.5794L129.539 15.2307L136 24.6418H130.224ZM118.804 24.6418L125.297 15.4261L128.136 18.6174L124.253 24.6418H118.804ZM129.506 17.7707L126.668 14.5794L130.257 8.81547H135.674L129.506 17.7707Z" fill="#030303"/>
</svg>
