<svg width="210" height="41" viewBox="0 0 210 41" fill="none" xmlns="http://www.w3.org/2000/svg">
<path d="M34.1987 27.3265C33.0313 28.4915 31.1385 28.4915 29.9711 27.3265L24.8173 22.1829C23.6498 21.0179 23.6498 19.129 24.8173 17.964L29.9711 12.8205C31.1385 11.6555 33.0313 11.6555 34.1987 12.8205L39.3527 17.964C40.52 19.129 40.52 21.0179 39.3527 22.1829L34.1987 27.3265ZM10.257 27.3265C9.08958 28.4915 7.19683 28.4915 6.02943 27.3265L0.875552 22.1829C-0.291849 21.0179 -0.291852 19.129 0.87555 17.964L6.02943 12.8205C7.19683 11.6555 9.08958 11.6555 10.257 12.8205L15.4109 17.964C16.5783 19.129 16.5783 21.0179 15.4109 22.1829L10.257 27.3265ZM22.2279 39.2731C21.0604 40.4383 19.1677 40.4383 18.0003 39.2731L12.8464 34.1297C11.679 32.9647 11.679 31.0757 12.8464 29.9107L18.0003 24.7673C19.1677 23.6021 21.0604 23.6021 22.2279 24.7673L27.3817 29.9107C28.5491 31.0757 28.5491 32.9647 27.3817 34.1297L22.2279 39.2731ZM22.2279 15.3798C21.0604 16.5448 19.1677 16.5448 18.0003 15.3798L12.8464 10.2363C11.679 9.07124 11.679 7.18233 12.8464 6.01727L18.0003 0.873787C19.1677 -0.291261 21.0604 -0.291263 22.2279 0.873785L27.3817 6.01727C28.5491 7.18233 28.5491 9.07124 27.3817 10.2363L22.2279 15.3798Z" fill="white"/>
<path d="M47.9644 38.0497V2.54961H53.6075L67.6145 24.3223H64.7425L78.6992 2.54961H84.3927V38.0497H76.4822V15.8747L77.893 16.2267L68.7733 30.4066H63.5333L54.464 16.2267L55.8244 15.8747V38.0497H47.9644Z" fill="white"/>
<path d="M102.602 38.6028C99.9481 38.6028 97.58 38.0664 95.4974 36.9937C93.4485 35.8875 91.8361 34.3622 90.6605 32.4179C89.4848 30.4736 88.897 28.2779 88.897 25.8308C88.897 23.3837 89.468 21.2047 90.6101 19.294C91.7857 17.3497 93.3645 15.8244 95.3463 14.7182C97.3281 13.6119 99.5618 13.0588 102.047 13.0588C104.466 13.0588 106.599 13.5784 108.446 14.6176C110.294 15.6568 111.738 17.0983 112.779 18.942C113.854 20.7857 114.392 22.8976 114.392 25.2777C114.392 25.7135 114.358 26.1828 114.291 26.6856C114.257 27.1549 114.173 27.708 114.039 28.345L92.9278 28.3953V23.1155L110.764 23.0652L107.439 25.2777C107.405 23.8697 107.187 22.7132 106.784 21.8081C106.381 20.8695 105.776 20.1655 104.97 19.6962C104.197 19.1934 103.24 18.942 102.098 18.942C100.889 18.942 99.8305 19.2269 98.9236 19.7968C98.0503 20.3332 97.3617 21.1042 96.8578 22.1098C96.3876 23.1155 96.1524 24.3391 96.1524 25.7805C96.1524 27.222 96.4044 28.4623 96.9082 29.5015C97.4457 30.5072 98.1846 31.2949 99.1252 31.8648C100.099 32.4012 101.241 32.6693 102.551 32.6693C103.761 32.6693 104.852 32.4682 105.826 32.0659C106.8 31.6301 107.657 30.9932 108.396 30.1552L112.628 34.379C111.419 35.7869 109.958 36.8428 108.245 37.5468C106.532 38.2508 104.651 38.6028 102.602 38.6028Z" fill="white"/>
<path d="M128.542 38.5525C126.225 38.5525 124.159 37.9994 122.345 36.8931C120.565 35.7869 119.154 34.2784 118.113 32.3676C117.105 30.4569 116.601 28.2779 116.601 25.8308C116.601 23.3837 117.105 21.2047 118.113 19.294C119.154 17.3832 120.565 15.8747 122.345 14.7685C124.159 13.6622 126.225 13.1091 128.542 13.1091C130.222 13.1091 131.734 13.4276 133.077 14.0645C134.454 14.7014 135.58 15.5898 136.453 16.7295C137.36 17.8357 137.864 19.1096 137.964 20.551V30.8591C137.864 32.3006 137.377 33.608 136.503 34.7812C135.63 35.921 134.505 36.8428 133.128 37.5468C131.75 38.2173 130.222 38.5525 128.542 38.5525ZM129.903 31.6134C131.011 31.6134 131.969 31.3787 132.775 30.9094C133.581 30.4066 134.219 29.7194 134.689 28.8478C135.16 27.9762 135.395 26.9706 135.395 25.8308C135.395 24.691 135.16 23.7021 134.689 22.8641C134.253 21.9925 133.615 21.3053 132.775 20.8025C131.969 20.2996 131.028 20.0482 129.953 20.0482C128.878 20.0482 127.921 20.2996 127.081 20.8025C126.275 21.3053 125.62 21.9925 125.116 22.8641C124.646 23.7357 124.411 24.7246 124.411 25.8308C124.411 26.937 124.646 27.9259 125.116 28.7975C125.587 29.6691 126.242 30.3563 127.081 30.8591C127.921 31.362 128.862 31.6134 129.903 31.6134ZM142.65 38.0497H135.093V31.4625L136.251 25.5291L134.941 19.5957V1.54395H142.65V38.0497Z" fill="white"/>
<path d="M148.078 38.0497V13.6119H155.787V38.0497H148.078ZM151.958 10.243C150.748 10.243 149.741 9.8407 148.935 9.03616C148.162 8.19811 147.776 7.19244 147.776 6.01916C147.776 4.81236 148.162 3.80669 148.935 3.00216C149.741 2.19763 150.748 1.79536 151.958 1.79536C153.167 1.79536 154.158 2.19763 154.93 3.00216C155.703 3.80669 156.089 4.81236 156.089 6.01916C156.089 7.19244 155.703 8.19811 154.93 9.03616C154.158 9.8407 153.167 10.243 151.958 10.243Z" fill="white"/>
<path d="M173.056 38.6028C170.537 38.6028 168.253 38.0497 166.204 36.9434C164.155 35.8372 162.542 34.3119 161.367 32.3676C160.191 30.4233 159.603 28.2444 159.603 25.8308C159.603 23.3837 160.191 21.2047 161.367 19.294C162.576 17.3497 164.205 15.8244 166.254 14.7182C168.303 13.6119 170.604 13.0588 173.157 13.0588C175.071 13.0588 176.818 13.3941 178.397 14.0645C180.009 14.7014 181.437 15.6736 182.68 16.9809L177.742 21.9087C177.171 21.2718 176.499 20.8025 175.726 20.5008C174.987 20.1991 174.131 20.0482 173.157 20.0482C172.048 20.0482 171.057 20.2996 170.184 20.8025C169.344 21.2718 168.673 21.9422 168.169 22.8138C167.698 23.6519 167.463 24.6408 167.463 25.7805C167.463 26.9203 167.698 27.9259 168.169 28.7975C168.673 29.6691 169.361 30.3563 170.234 30.8591C171.108 31.362 172.082 31.6134 173.157 31.6134C174.164 31.6134 175.055 31.4458 175.827 31.1105C176.633 30.7418 177.322 30.239 177.893 29.6021L182.78 34.5298C181.504 35.8707 180.06 36.8931 178.447 37.5971C176.835 38.2675 175.038 38.6028 173.056 38.6028Z" fill="white"/>
<path d="M201.082 38.0497L195.187 28.5461L193.524 27.4902L183.901 13.6119H192.919L198.411 22.5121L200.024 23.5178L210 38.0497H201.082ZM183.447 38.0497L193.474 23.8195L197.857 28.7472L191.861 38.0497H183.447ZM199.973 27.4399L195.59 22.5121L201.132 13.6119H209.496L199.973 27.4399Z" fill="white"/>
</svg>
