<svg width="138" height="138" viewBox="0 0 138 138" fill="none" xmlns="http://www.w3.org/2000/svg">
<path d="M72.3512 120.167V132.797H67.5026C66.6324 132.797 65.8638 132.644 65.197 132.339C64.5189 132.034 63.9877 131.582 63.6034 130.983C63.2191 130.384 63.027 129.644 63.027 128.762C63.027 127.903 63.2248 127.174 63.6203 126.575C64.0046 125.976 64.5358 125.518 65.2139 125.202C65.8808 124.897 66.6437 124.744 67.5026 124.744H69.7235V120.167H72.3512ZM69.7235 127.033H67.4857C66.9319 127.033 66.4911 127.191 66.1633 127.507C65.8243 127.824 65.6547 128.242 65.6547 128.762C65.6547 129.293 65.8243 129.717 66.1633 130.033C66.4911 130.35 66.9319 130.508 67.4857 130.508H69.7235V127.033Z" fill="#0022FF"/>
<path d="M57.5553 118.96L54.5327 131.223L52.0636 130.614L55.0862 118.351L57.5553 118.96Z" fill="#0022FF"/>
<path d="M45.577 114.466C46.4576 114.928 47.0479 115.506 47.3477 116.2C47.6374 116.888 47.588 117.602 47.1993 118.343C46.8369 119.033 46.2973 119.478 45.5806 119.676C44.8639 119.874 43.9732 119.796 42.9084 119.441L40.4526 118.612L40.3344 118.837C40.1716 119.147 40.1601 119.473 40.3 119.815C40.4299 120.151 40.705 120.429 41.1253 120.65C41.5256 120.86 41.9387 120.936 42.3644 120.879C42.7802 120.816 43.1527 120.642 43.4819 120.355L44.8342 122.156C44.2368 122.711 43.5079 123.017 42.6473 123.076C41.7767 123.13 40.9061 122.928 40.0354 122.471C39.3449 122.109 38.8001 121.663 38.401 121.135C38.0019 120.606 37.7754 120.04 37.7216 119.438C37.6524 118.84 37.7728 118.246 38.0827 117.655L40.919 112.251L43.0206 113.354L42.6188 114.12C43.5701 113.815 44.5562 113.93 45.577 114.466ZM44.8332 117.197C44.9645 116.946 44.9718 116.701 44.8552 116.462C44.7386 116.222 44.5402 116.028 44.26 115.881C43.6996 115.587 43.1573 115.526 42.6332 115.697C42.1091 115.869 41.7158 116.205 41.4532 116.705L41.3192 116.961L43.354 117.607C43.7057 117.715 44.0061 117.739 44.255 117.678C44.4986 117.627 44.6914 117.467 44.8332 117.197Z" fill="#0022FF"/>
<path d="M39.016 106.158C39.219 106.338 39.4028 106.531 39.5674 106.737C39.7236 106.936 39.8398 107.137 39.9162 107.341L38.5334 108.901C38.3377 108.577 38.0875 108.28 37.7829 108.01C37.4107 107.68 37.0655 107.533 36.7474 107.568C36.4293 107.603 36.1183 107.69 35.8144 107.829L35.429 108.008L32.0191 117.354L29.976 115.544L32.285 109.64L26.7021 112.643L24.6591 110.833L34.34 105.888C36.1884 104.944 37.747 105.034 39.016 106.158Z" fill="#0022FF"/>
<path d="M20.7655 87.6158L13.4031 94.3063L12.4292 91.7383L16.9033 87.902L11.0105 87.9974L10.0366 85.4294L19.984 85.5551L20.7655 87.6158Z" fill="#0022FF"/>
<path d="M7.64235 77.2278L5.11792 77.5343L4.8114 75.0099L7.33583 74.7033L7.64235 77.2278ZM17.656 76.0119L8.467 77.1276L8.16048 74.6032L17.3494 73.4875L17.656 76.0119Z" fill="#0022FF"/>
<path d="M17.7513 62.0554C17.6423 62.953 17.3317 63.7293 16.8196 64.3844C16.3074 65.0395 15.6615 65.5303 14.8818 65.8569C14.1035 66.1723 13.2711 66.2761 12.3848 66.1685C11.4872 66.0595 10.7046 65.7539 10.0369 65.2515C9.35803 64.7479 8.84833 64.1167 8.5078 63.3581C8.16728 62.5995 8.05015 61.7826 8.15641 60.9075C8.29128 59.7967 8.72359 58.9555 9.45335 58.3838L5.3301 57.8831L5.63663 55.3587L18.1747 56.8811L17.8886 59.2372L17.0134 59.131C17.3217 59.4986 17.5413 59.9408 17.6721 60.4576C17.793 60.9618 17.8194 61.4945 17.7513 62.0554ZM15.5161 61.4766C15.5992 60.7922 15.4366 60.2089 15.0284 59.7267C14.6103 59.2319 14.0254 58.9389 13.2737 58.8476C12.5332 58.7577 11.9007 58.9029 11.3764 59.2833C10.8534 59.6524 10.5503 60.1792 10.4672 60.8636C10.3828 61.5592 10.5545 62.1607 10.9825 62.6681C11.3992 63.1741 11.9722 63.4714 12.7015 63.5599C13.442 63.6498 14.0751 63.499 14.6008 63.1074C15.1265 62.7159 15.4316 62.1723 15.5161 61.4766Z" fill="#0022FF"/>
<path d="M20.7633 50.1309C20.4146 51.0502 19.9113 51.772 19.2532 52.296C18.5845 52.816 17.8366 53.1307 17.0095 53.2401C16.1823 53.3494 15.3513 53.2458 14.5164 52.9292C13.6499 52.6006 12.9506 52.1178 12.4185 51.4808C11.8905 50.8333 11.5552 50.1078 11.4127 49.3044C11.2702 48.5009 11.3552 47.687 11.6678 46.8627C12.0165 45.9433 12.5013 45.2387 13.1222 44.749C13.7431 44.2592 14.438 43.9727 15.2069 43.8896C15.9692 43.7919 16.7519 43.8954 17.555 44.1999C17.7241 44.2641 17.8892 44.3388 18.0503 44.424C18.2048 44.4947 18.3321 44.5732 18.4323 44.6596L16.1359 50.7149C16.6989 50.8558 17.2143 50.8035 17.6822 50.5579C18.1501 50.3123 18.4942 49.8989 18.7146 49.3176C18.8749 48.8949 18.9267 48.5036 18.8698 48.1435C18.8169 47.773 18.6746 47.447 18.4429 47.1657L20.0678 45.6062C20.6017 46.1109 20.9379 46.7702 21.0764 47.5843C21.2043 48.3943 21.1 49.2432 20.7633 50.1309ZM13.57 47.5841C13.3937 48.0491 13.3755 48.4955 13.5154 48.9233C13.6594 49.3405 13.9577 49.7014 14.4102 50.006L15.7749 46.4077C15.3005 46.2882 14.8604 46.3329 14.4549 46.5417C14.0493 46.7505 13.7544 47.098 13.57 47.5841Z" fill="#0022FF"/>
<path d="M26.741 38.9469C26.2209 39.7003 25.5737 40.2699 24.7994 40.6555C24.0315 41.0319 23.2215 41.2006 22.3694 41.1618C21.5144 41.1072 20.7056 40.8167 19.9429 40.2902C19.1708 39.7573 18.6124 39.104 18.2675 38.3304C17.929 37.5474 17.7996 36.7302 17.8791 35.8788C17.9651 35.018 18.2682 34.2109 18.7882 33.4575C19.3083 32.7041 19.9522 32.1392 20.7201 31.7629C21.488 31.3865 22.2948 31.2224 23.1405 31.2706C23.9926 31.3094 24.8047 31.5953 25.5767 32.1282C26.3394 32.6546 26.8947 33.3126 27.2425 34.1019C27.5874 34.8756 27.72 35.6882 27.6404 36.5396C27.5608 37.3911 27.261 38.1935 26.741 38.9469ZM24.8574 37.6468C25.2491 37.0794 25.3715 36.4842 25.2249 35.861C25.0782 35.2379 24.6979 34.7145 24.084 34.2908C23.4794 33.8734 22.8598 33.7067 22.2251 33.7905C21.5812 33.8679 21.0634 34.1903 20.6718 34.7576C20.2801 35.325 20.1591 35.9281 20.3087 36.567C20.4554 37.1901 20.831 37.7103 21.4356 38.1276C22.0495 38.5514 22.6738 38.7213 23.3084 38.6375C23.9494 38.5444 24.4658 38.2142 24.8574 37.6468Z" fill="#0022FF"/>
<path d="M44.0507 23.2729L42.8689 21.0213L45.1206 19.8395L46.3024 22.0912L44.0507 23.2729Z" fill="#0022FF"/>
<path d="M65.0809 17V4.36988L69.9295 4.36988C70.7998 4.36988 71.5683 4.52246 72.2351 4.82761C72.9133 5.13277 73.4445 5.58486 73.8287 6.18387C74.213 6.78288 74.4051 7.52317 74.4051 8.40474C74.4051 9.2637 74.2074 9.99268 73.8118 10.5917C73.4275 11.1907 72.8963 11.6484 72.2182 11.9649C71.5514 12.2701 70.7885 12.4226 69.9295 12.4226H67.7086V17H65.0809ZM67.7086 10.134H69.9465C70.5003 10.134 70.941 9.97573 71.2688 9.65927C71.6079 9.34281 71.7774 8.92463 71.7774 8.40474C71.7774 7.87354 71.6079 7.44971 71.2688 7.13325C70.941 6.81679 70.5003 6.65856 69.9465 6.65856L67.7086 6.65856V10.134Z" fill="#0022FF"/>
<path d="M79.8764 18.2068L82.899 5.94367L85.368 6.55224L82.3455 18.8154L79.8764 18.2068Z" fill="#0022FF"/>
<path d="M91.8554 22.7007C90.9747 22.2385 90.3845 21.6607 90.0847 20.9672C89.7949 20.2791 89.8444 19.5647 90.2331 18.8241C90.5955 18.1336 91.135 17.6892 91.8517 17.491C92.5685 17.2928 93.4592 17.371 94.524 17.7256L96.9798 18.555L97.098 18.3298C97.2608 18.0196 97.2722 17.6937 97.1324 17.3523C97.0025 17.016 96.7274 16.7376 96.3071 16.517C95.9068 16.3069 95.4937 16.2306 95.0679 16.2879C94.6522 16.3505 94.2797 16.5252 93.9505 16.8119L92.5982 15.0108C93.1955 14.4564 93.9245 14.1497 94.7851 14.0908C95.6557 14.0372 96.5263 14.2388 97.397 14.6958C98.0875 15.0582 98.6323 15.5037 99.0314 16.0322C99.4305 16.5608 99.6569 17.1264 99.7108 17.7291C99.7799 18.327 99.6595 18.9211 99.3497 19.5116L96.5134 24.9157L94.4118 23.8127L94.8136 23.0471C93.8622 23.3519 92.8762 23.2365 91.8554 22.7007ZM92.5992 19.9702C92.4679 20.2204 92.4605 20.4655 92.5771 20.7054C92.6938 20.9453 92.8922 21.1388 93.1724 21.2858C93.7328 21.58 94.2751 21.6412 94.7991 21.4695C95.3232 21.2978 95.7166 20.9618 95.9792 20.4614L96.1131 20.2062L94.0784 19.5595C93.7267 19.4515 93.4263 19.4279 93.1774 19.4887C92.9337 19.5395 92.741 19.7 92.5992 19.9702Z" fill="#0022FF"/>
<path d="M98.4161 31.0087C98.2131 30.8288 98.0293 30.6358 97.8647 30.4296C97.7086 30.2308 97.5923 30.0297 97.5159 29.8262L98.8987 28.2653C99.0945 28.5898 99.3446 28.8869 99.6492 29.1567C100.021 29.4864 100.367 29.6337 100.685 29.5984C101.003 29.5632 101.314 29.4763 101.618 29.3378L102.003 29.1584L105.413 19.8128L107.456 21.6228L105.147 27.5271L110.73 24.5232L112.773 26.3332L103.092 31.2783C101.244 32.2228 99.6851 32.1329 98.4161 31.0087Z" fill="#0022FF"/>
<path d="M116.666 49.5509L124.029 42.8604L125.003 45.4284L120.529 49.2647L126.421 49.1693L127.395 51.7373L117.448 51.6116L116.666 49.5509Z" fill="#0022FF"/>
<path d="M129.79 59.9389L132.314 59.6324L132.621 62.1568L130.096 62.4634L129.79 59.9389ZM119.776 61.1548L128.965 60.039L129.272 62.5635L120.083 63.6792L119.776 61.1548Z" fill="#0022FF"/>
<path d="M119.681 75.1112C119.79 74.2137 120.1 73.4373 120.613 72.7823C121.125 72.1272 121.771 71.6364 122.55 71.3098C123.329 70.9944 124.161 70.8906 125.047 70.9982C125.945 71.1072 126.728 71.4128 127.395 71.9151C128.074 72.4188 128.584 73.05 128.924 73.8086C129.265 74.5672 129.382 75.3841 129.276 76.2592C129.141 77.3699 128.709 78.2112 127.979 78.7829L132.102 79.2836L131.796 81.808L119.257 80.2856L119.544 77.9295L120.419 78.0357C120.11 77.6681 119.891 77.2259 119.76 76.7091C119.639 76.2048 119.613 75.6722 119.681 75.1112ZM121.916 75.69C121.833 76.3744 121.995 76.9578 122.404 77.44C122.822 77.9347 123.407 78.2278 124.158 78.319C124.899 78.409 125.531 78.2637 126.056 77.8834C126.579 77.5143 126.882 76.9875 126.965 76.3031C127.049 75.6075 126.878 75.006 126.45 74.4986C126.033 73.9926 125.46 73.6953 124.731 73.6068C123.99 73.5169 123.357 73.6677 122.831 74.0593C122.306 74.4508 122 74.9944 121.916 75.69Z" fill="#0022FF"/>
<path d="M116.669 87.0358C117.017 86.1164 117.521 85.3947 118.179 84.8707C118.847 84.3507 119.595 84.036 120.422 83.9266C121.25 83.8173 122.081 83.9209 122.915 84.2375C123.782 84.5661 124.481 85.0489 125.013 85.6859C125.541 86.3334 125.877 87.0589 126.019 87.8623C126.162 88.6658 126.077 89.4797 125.764 90.304C125.415 91.2234 124.931 91.9279 124.31 92.4177C123.689 92.9075 122.994 93.194 122.225 93.2771C121.463 93.3748 120.68 93.2713 119.877 92.9667C119.708 92.9026 119.543 92.8279 119.382 92.7427C119.227 92.672 119.1 92.5935 119 92.5071L121.296 86.4518C120.733 86.3108 120.218 86.3632 119.75 86.6088C119.282 86.8544 118.938 87.2678 118.717 87.8491C118.557 88.2718 118.505 88.6631 118.562 89.0231C118.615 89.3937 118.757 89.7197 118.989 90.001L117.364 91.5605C116.83 91.0558 116.494 90.3965 116.356 89.5824C116.228 88.7724 116.332 87.9235 116.669 87.0358ZM123.862 89.5826C124.038 89.1176 124.056 88.6712 123.916 88.2434C123.773 87.8262 123.474 87.4653 123.022 87.1607L121.657 90.759C122.131 90.8785 122.571 90.8338 122.977 90.625C123.383 90.4162 123.678 90.0687 123.862 89.5826Z" fill="#0022FF"/>
<path d="M110.691 98.2198C111.211 97.4663 111.859 96.8968 112.633 96.5112C113.401 96.1348 114.211 95.9661 115.063 96.0049C115.918 96.0595 116.727 96.35 117.49 96.8765C118.262 97.4093 118.82 98.0626 119.165 98.8363C119.503 99.6192 119.633 100.436 119.553 101.288C119.467 102.149 119.164 102.956 118.644 103.709C118.124 104.463 117.48 105.027 116.712 105.404C115.944 105.78 115.138 105.944 114.292 105.896C113.44 105.857 112.628 105.571 111.856 105.038C111.093 104.512 110.538 103.854 110.19 103.065C109.845 102.291 109.712 101.479 109.792 100.627C109.872 99.7756 110.171 98.9732 110.691 98.2198ZM112.575 99.5199C112.183 100.087 112.061 100.683 112.208 101.306C112.354 101.929 112.734 102.452 113.348 102.876C113.953 103.293 114.573 103.46 115.207 103.376C115.851 103.299 116.369 102.976 116.761 102.409C117.152 101.842 117.273 101.239 117.124 100.6C116.977 99.9766 116.601 99.4564 115.997 99.0391C115.383 98.6153 114.759 98.4453 114.124 98.5291C113.483 98.6222 112.967 98.9525 112.575 99.5199Z" fill="#0022FF"/>
<path d="M93.3816 113.894L94.5634 116.146L92.3117 117.327L91.1299 115.076L93.3816 113.894Z" fill="#0022FF"/>
</svg>
