<svg width="10" height="16" viewBox="0 0 10 16" fill="none" xmlns="http://www.w3.org/2000/svg">
<path fill-rule="evenodd" clip-rule="evenodd" d="M8.93023 0.368714C8.69237 0.132614 8.36995 0 8.03378 0C7.69761 0 7.37518 0.132614 7.13732 0.368714L0.371648 7.09278C0.134088 7.32918 0.00065136 7.64962 0.00065136 7.98372C0.00065136 8.31782 0.134088 8.63827 0.371648 8.87466L7.13732 15.5987C7.25346 15.7226 7.39351 15.8219 7.54912 15.8909C7.70473 15.9598 7.87271 15.9968 8.04304 15.9998C8.21337 16.0028 8.38256 15.9717 8.54052 15.9082C8.69848 15.8448 8.84197 15.7505 8.96243 15.6307C9.08289 15.511 9.17785 15.3684 9.24166 15.2114C9.30546 15.0544 9.33679 14.8863 9.33379 14.717C9.33078 14.5477 9.2935 14.3808 9.22416 14.2261C9.15483 14.0715 9.05486 13.9323 8.93023 13.8169L3.061 7.98372L8.93023 2.15059C9.16779 1.9142 9.30122 1.59376 9.30122 1.25965C9.30122 0.92555 9.16779 0.605108 8.93023 0.368714Z" fill="#030303"/>
</svg>
