<svg width="10" height="16" viewBox="0 0 10 16" fill="none" xmlns="http://www.w3.org/2000/svg">
<path fill-rule="evenodd" clip-rule="evenodd" d="M0.403757 0.368714C0.641613 0.132614 0.964038 0 1.30021 0C1.63638 0 1.9588 0.132614 2.19666 0.368714L8.96234 7.09278C9.1999 7.32918 9.33333 7.64962 9.33333 7.98372C9.33333 8.31782 9.1999 8.63827 8.96234 8.87466L2.19666 15.5987C2.08052 15.7226 1.94047 15.8219 1.78486 15.8909C1.62926 15.9598 1.46127 15.9968 1.29094 15.9998C1.12061 16.0028 0.951422 15.9717 0.793463 15.9082C0.635505 15.8448 0.492016 15.7505 0.371555 15.6307C0.251094 15.511 0.15613 15.3684 0.0923275 15.2114C0.0285255 15.0544 -0.00280787 14.8863 0.000197422 14.717C0.00320271 14.5477 0.040485 14.3808 0.10982 14.2261C0.179154 14.0715 0.279121 13.9323 0.403757 13.8169L6.27298 7.98372L0.403757 2.15059C0.166196 1.9142 0.0327603 1.59376 0.0327603 1.25965C0.0327603 0.92555 0.166196 0.605108 0.403757 0.368714Z" fill="#030303"/>
</svg>
