<svg width="50" height="50" viewBox="0 0 50 50" fill="none" xmlns="http://www.w3.org/2000/svg">
<mask id="mask0_3192_1793" style="mask-type:luminance" maskUnits="userSpaceOnUse" x="0" y="0" width="50" height="50">
<path d="M0 0H50V50H0V0Z" fill="white"/>
</mask>
<g mask="url(#mask0_3192_1793)">
<path d="M19.1406 46.7773C17.214 42.924 16.2109 38.6751 16.2109 34.367V19.035H22.0703V34.367C22.0703 38.6751 21.0673 42.924 19.1406 46.7773Z" stroke="white" stroke-width="3" stroke-miterlimit="10"/>
<path d="M16.2109 7.32422C16.2109 10.5603 13.5876 13.1836 10.3516 13.1836C7.11553 13.1836 4.49219 10.5603 4.49219 7.32422C4.49219 4.08818 7.11553 1.46484 10.3516 1.46484C13.5876 1.46484 16.2109 4.08818 16.2109 7.32422Z" stroke="white" stroke-width="3" stroke-miterlimit="10"/>
<path d="M33.7891 7.32422C33.7891 10.5603 31.1657 13.1836 27.9297 13.1836C24.6937 13.1836 22.0703 10.5603 22.0703 7.32422C22.0703 4.08818 24.6937 1.46484 27.9297 1.46484C31.1657 1.46484 33.7891 4.08818 33.7891 7.32422Z" stroke="white" stroke-width="3" stroke-miterlimit="10"/>
<path d="M16.2109 7.32417V19.0349" stroke="white" stroke-width="3" stroke-miterlimit="10"/>
<path d="M22.0703 7.32417V19.0349" stroke="white" stroke-width="3" stroke-miterlimit="10"/>
<path d="M45.5078 48.5352H39.6484V22.0703L45.5078 25V48.5352Z" stroke="white" stroke-width="3" stroke-miterlimit="10"/>
<path d="M39.6484 27.9297L45.5078 30.8594" stroke="white" stroke-width="3" stroke-miterlimit="10"/>
<path d="M39.6484 33.7891L45.5078 36.7188" stroke="white" stroke-width="3" stroke-miterlimit="10"/>
<path d="M45.5078 19.1406L39.6484 22.0703V2.33574C43.2394 4.13125 45.5078 7.80156 45.5078 11.8164V19.1406Z" stroke="white" stroke-width="3" stroke-miterlimit="10"/>
</g>
</svg>
