<svg width="50" height="44" viewBox="0 0 50 44" fill="none" xmlns="http://www.w3.org/2000/svg">
<path d="M44.6289 6.25H42.0898V5.37109C42.0898 4.56211 41.434 3.90625 40.625 3.90625H35.1562C34.3473 3.90625 33.6914 4.56211 33.6914 5.37109V6.25H31.1523V4.58984C31.1523 2.05898 29.0934 0 26.5625 0H23.4375C20.9066 0 18.8477 2.05898 18.8477 4.58984V6.25H16.3086V5.37109C16.3086 4.56211 15.6527 3.90625 14.8438 3.90625H9.375C8.56602 3.90625 7.91016 4.56211 7.91016 5.37109V6.25H5.37109C2.40947 6.25 0 8.65947 0 11.6211V38.1836C0 41.1452 2.40947 43.5547 5.37109 43.5547H44.6289C47.5905 43.5547 50 41.1452 50 38.1836V11.6211C50 8.65947 47.5905 6.25 44.6289 6.25ZM36.6211 6.83594H39.1602V10.1562H36.6211V6.83594ZM21.7773 4.58984C21.7773 3.67441 22.5221 2.92969 23.4375 2.92969H26.5625C27.4779 2.92969 28.2227 3.67441 28.2227 4.58984V6.25H21.7773V4.58984ZM10.8398 6.83594H13.3789V10.1562H10.8398V6.83594ZM47.0703 38.1836C47.0703 39.5298 45.9751 40.625 44.6289 40.625H5.37109C4.0249 40.625 2.92969 39.5298 2.92969 38.1836V11.6211C2.92969 10.2749 4.0249 9.17969 5.37109 9.17969H7.91016V11.6211C7.91016 12.4301 8.56602 13.0859 9.375 13.0859H14.8438C15.6527 13.0859 16.3086 12.4301 16.3086 11.6211V9.17969H33.6914V11.6211C33.6914 12.4301 34.3473 13.0859 35.1562 13.0859H40.625C41.434 13.0859 42.0898 12.4301 42.0898 11.6211V9.17969H44.6289C45.9751 9.17969 47.0703 10.2749 47.0703 11.6211V38.1836Z" fill="white"/>
<path d="M32.0312 20.3125H29.5898V17.8711C29.5898 17.0621 28.934 16.4062 28.125 16.4062H21.875C21.066 16.4062 20.4102 17.0621 20.4102 17.8711V20.3125H17.9688C17.1598 20.3125 16.5039 20.9684 16.5039 21.7773V28.0273C16.5039 28.8363 17.1598 29.4922 17.9688 29.4922H20.4102V31.9336C20.4102 32.7426 21.066 33.3984 21.875 33.3984H28.125C28.934 33.3984 29.5898 32.7426 29.5898 31.9336V29.4922H32.0312C32.8402 29.4922 33.4961 28.8363 33.4961 28.0273V21.7773C33.4961 20.9684 32.8402 20.3125 32.0312 20.3125ZM30.5664 26.5625H28.125C27.316 26.5625 26.6602 27.2184 26.6602 28.0273V30.4688H23.3398V28.0273C23.3398 27.2184 22.684 26.5625 21.875 26.5625H19.4336V23.2422H21.875C22.684 23.2422 23.3398 22.5863 23.3398 21.7773V19.3359H26.6602V21.7773C26.6602 22.5863 27.316 23.2422 28.125 23.2422H30.5664V26.5625Z" fill="white"/>
</svg>
