<svg width="44" height="50" viewBox="0 0 44 50" fill="none" xmlns="http://www.w3.org/2000/svg">
<path d="M40.6025 3.31665L38.0137 4.68822C39.9773 8.39463 41.0152 12.5629 41.0152 16.7426C41.0152 20.7468 40.2994 24.6934 38.8875 28.4725L41.632 29.4978C43.1667 25.3896 43.945 21.0981 43.945 16.7426C43.945 12.0866 42.7892 7.44395 40.6025 3.31665Z" fill="white"/>
<path d="M33.3105 8.35155C34.5354 11.0036 35.1565 13.8267 35.1565 16.7427C35.1565 19.4198 34.7639 22.0872 33.9896 24.6706L36.7959 25.5117C37.6521 22.6551 38.0862 19.7048 38.0862 16.7427C38.0862 13.3995 37.3743 10.1631 35.9701 7.12305L33.3105 8.35155Z" fill="white"/>
<path d="M31.6597 12.5766C30.0667 6.49671 25.1459 0 16.1133 0C10.2239 0 0.000179842 4.79185 0.000179842 16.1131C0.000179842 20.1116 1.47556 23.9552 4.16039 26.9421C4.96624 27.8285 5.43821 29.4236 4.23959 30.454C-3.3866 37.0109 -0.181654 49.6861 9.52167 49.992C15.4556 50.1791 17.5998 47.0788 19.8059 42.3741C21.3291 39.1254 21.5522 38.9593 23.5463 36.4908C28.9403 29.8124 34.1583 22.1155 31.6597 12.5766ZM21.267 34.65C19.1614 37.2568 18.8128 37.5907 17.1532 41.1303C15.4978 44.6608 14.2978 47.2113 9.61385 47.0638C2.64293 46.8441 0.541385 37.4969 6.14934 32.6755C8.58642 30.5805 8.31728 27.1596 6.33361 24.9775C4.13871 22.5355 2.92984 19.3874 2.92984 16.1131C2.92984 7.01243 11.1963 2.92966 16.1133 2.92966C23.4789 2.92966 27.5096 8.2966 28.8258 13.3191C31.2113 22.4241 25.2921 29.6666 21.267 34.65Z" fill="white"/>
<path d="M19.2674 6.40618C12.9436 4.44116 5.87139 8.10128 5.85938 16.0988C5.85938 17.3764 6.08974 18.6219 6.54413 19.8006L9.2777 18.7469C8.95348 17.9057 8.78903 17.0147 8.78903 16.1009C8.79108 14.7543 9.05339 13.5513 9.54791 12.5279C12.6334 13.9516 14.6483 17.0481 14.6483 20.5075C14.6483 21.826 14.3641 23.0931 13.8033 24.2734L16.4496 25.5305C17.1984 23.9543 17.5781 22.2643 17.5781 20.5074C17.5781 16.1551 15.1851 12.2339 11.458 10.2105C12.0616 9.76425 12.759 9.41396 13.5444 9.17295C20.5579 7.0216 29.8659 14.2916 17.4254 29.8463L19.7132 31.6761C30.5764 18.0938 26.7741 8.73877 19.2674 6.40618Z" fill="white"/>
</svg>
