<svg width="19" height="18" viewBox="0 0 19 18" fill="none" xmlns="http://www.w3.org/2000/svg">
<path fill-rule="evenodd" clip-rule="evenodd" d="M9.22393 0C4.11234 0 0 4.11234 0 9.22393C0 13.2978 2.65188 16.7568 6.30302 17.9867C6.76422 18.0635 6.91795 17.7945 6.91795 17.5255C6.91795 17.2949 6.91795 16.7184 6.91795 15.9497C4.34294 16.5262 3.80487 14.7199 3.80487 14.7199C3.38211 13.6437 2.76718 13.3747 2.76718 13.3747C1.92165 12.7982 2.84405 12.7982 2.84405 12.7982C3.76644 12.8751 4.26607 13.759 4.26607 13.759C5.07316 15.1811 6.41832 14.7583 6.95638 14.5277C7.03325 13.9128 7.26385 13.5284 7.53288 13.2978C5.49593 13.0672 3.34368 12.2601 3.34368 8.7243C3.34368 7.72504 3.68957 6.87952 4.3045 6.26459C4.22764 6.03399 3.88174 5.1116 4.38137 3.80487C4.38137 3.80487 5.15003 3.57427 6.91795 4.7657C7.64818 4.57353 8.45527 4.45823 9.22393 4.45823C9.99259 4.45823 10.7997 4.57353 11.5299 4.7657C13.2978 3.57427 14.0665 3.80487 14.0665 3.80487C14.5661 5.07316 14.2587 5.99556 14.1434 6.26459C14.7199 6.91795 15.1042 7.72504 15.1042 8.7243C15.1042 12.2601 12.9519 13.0288 10.8766 13.2594C11.2225 13.5284 11.4915 14.1049 11.4915 14.9505C11.4915 16.1803 11.4915 17.1796 11.4915 17.487C11.4915 17.7176 11.6452 18.0251 12.1448 17.9482C15.796 16.7568 18.4479 13.2978 18.4479 9.22393C18.4479 4.11234 14.3355 0 9.22393 0Z" fill="#030303"/>
</svg>
