<svg width="19" height="19" viewBox="0 0 19 19" fill="none" xmlns="http://www.w3.org/2000/svg">
<path d="M9.49955 1.71173C12.0359 1.71173 12.3363 1.72123 13.3383 1.76692C13.9407 1.77429 14.5374 1.88491 15.1025 2.09397C15.5122 2.252 15.8844 2.49408 16.1949 2.80463C16.5055 3.11518 16.7475 3.48731 16.9056 3.89708C17.1146 4.46213 17.2253 5.05884 17.2326 5.66128C17.2779 6.66325 17.2878 6.96362 17.2878 9.5C17.2878 12.0364 17.2783 12.3367 17.2326 13.3387C17.2253 13.9412 17.1146 14.5379 16.9056 15.1029C16.7475 15.5127 16.5055 15.8848 16.1949 16.1954C15.8844 16.5059 15.5122 16.748 15.1025 16.906C14.5374 17.1151 13.9407 17.2257 13.3383 17.2331C12.3367 17.2783 12.0364 17.2883 9.49955 17.2883C6.96272 17.2883 6.66235 17.2788 5.66083 17.2331C5.05839 17.2257 4.46167 17.1151 3.89662 16.906C3.48686 16.748 3.11472 16.5059 2.80418 16.1954C2.49363 15.8848 2.25155 15.5127 2.09352 15.1029C1.88446 14.5379 1.77384 13.9412 1.76646 13.3387C1.72123 12.3367 1.71128 12.0364 1.71128 9.5C1.71128 6.96362 1.72078 6.66325 1.76646 5.66128C1.77384 5.05884 1.88446 4.46213 2.09352 3.89708C2.25155 3.48731 2.49363 3.11518 2.80418 2.80463C3.11472 2.49408 3.48686 2.252 3.89662 2.09397C4.46167 1.88491 5.05839 1.77429 5.66083 1.76692C6.6628 1.72168 6.96317 1.71173 9.49955 1.71173ZM9.49955 0C6.9211 0 6.59631 0.0108566 5.58302 0.0569973C4.79458 0.0726796 4.01451 0.221964 3.27599 0.4985C2.64246 0.737195 2.06864 1.11125 1.59457 1.59457C1.11081 2.06881 0.736438 2.64295 0.497595 3.27689C0.221059 4.01541 0.071775 4.79548 0.0560926 5.58392C0.0108567 6.59631 0 6.9211 0 9.49955C0 12.078 0.0108566 12.4028 0.0569973 13.4161C0.0726796 14.2045 0.221964 14.9846 0.4985 15.7231C0.737078 16.357 1.11114 16.9311 1.59457 17.4054C2.0689 17.8889 2.64304 18.2629 3.27689 18.5015C4.01541 18.778 4.79548 18.9273 5.58392 18.943C6.59721 18.9882 6.92065 19 9.50045 19C12.0803 19 12.4037 18.9891 13.417 18.943C14.2054 18.9273 14.9855 18.778 15.724 18.5015C16.3549 18.257 16.9277 17.8835 17.406 17.4049C17.8843 16.9263 18.2574 16.3532 18.5015 15.7222C18.778 14.9837 18.9273 14.2036 18.943 13.4152C18.9882 12.4028 18.9991 12.078 18.9991 9.49955C18.9991 6.9211 18.9882 6.59631 18.9421 5.58302C18.9264 4.79458 18.7771 4.01451 18.5006 3.27599C18.262 2.64213 17.888 2.06799 17.4045 1.59366C16.9302 1.11024 16.3561 0.736173 15.7222 0.497595C14.9837 0.221059 14.2036 0.071775 13.4152 0.0560926C12.4028 0.0108567 12.078 0 9.49955 0Z" fill="#030303"/>
<path d="M9.50325 4.62305C8.53842 4.62305 7.59526 4.90915 6.79304 5.44518C5.99082 5.98121 5.36556 6.74309 4.99634 7.63447C4.62711 8.52585 4.53051 9.5067 4.71874 10.453C4.90696 11.3993 5.37157 12.2685 6.05381 12.9507C6.73604 13.633 7.60526 14.0976 8.55155 14.2858C9.49784 14.474 10.4787 14.3774 11.3701 14.0082C12.2615 13.639 13.0233 13.0137 13.5594 12.2115C14.0954 11.4093 14.3815 10.4661 14.3815 9.50129C14.3815 8.2075 13.8675 6.9667 12.9527 6.05185C12.0378 5.137 10.797 4.62305 9.50325 4.62305ZM9.50325 12.6678C8.87697 12.6678 8.26476 12.4821 7.74402 12.1342C7.22329 11.7862 6.81743 11.2917 6.57777 10.7131C6.3381 10.1345 6.27539 9.49778 6.39757 8.88353C6.51975 8.26929 6.82134 7.70507 7.26418 7.26223C7.70703 6.81938 8.27125 6.5178 8.88549 6.39562C9.49973 6.27344 10.1364 6.33615 10.715 6.57581C11.2936 6.81548 11.7882 7.22134 12.1361 7.74207C12.484 8.2628 12.6698 8.87501 12.6698 9.50129C12.6698 10.3411 12.3361 11.1465 11.7423 11.7404C11.1485 12.3342 10.3431 12.6678 9.50325 12.6678Z" fill="#030303"/>
<path d="M14.5696 5.56969C15.1992 5.56969 15.7096 5.05932 15.7096 4.42974C15.7096 3.80017 15.1992 3.28979 14.5696 3.28979C13.9401 3.28979 13.4297 3.80017 13.4297 4.42974C13.4297 5.05932 13.9401 5.56969 14.5696 5.56969Z" fill="#030303"/>
</svg>
